<svg width="1148" height="133" viewBox="0 0 1148 133" fill="none" xmlns="http://www.w3.org/2000/svg">
<path d="M102.402 47.8321H99.2774C99.2774 39.6199 98.9203 33.5946 98.2062 29.7563C97.4326 25.8287 96.0937 22.6599 94.1894 20.2498C91.4222 16.6495 87.093 13.7782 81.2016 11.6359C75.221 9.58285 69.4933 8.55633 64.0185 8.55633C54.0507 8.55633 44.9013 11.0557 36.5701 16.0544C28.4174 20.9341 22.0202 27.6884 17.3785 36.3171C12.8558 44.8864 10.4755 54.2739 10.2375 64.4796C10.2375 72.0968 11.7103 79.4758 14.656 86.6169C17.3339 93.8174 21.3507 100.274 26.7065 105.987C31.735 111.551 37.7751 115.999 44.8269 119.332C51.7002 122.516 59.0048 124.107 66.741 124.107C80.5768 123.899 93.1331 118.35 104.41 107.46L107.713 111.298C101.554 116.684 94.725 120.879 87.2269 123.884C79.699 126.949 71.9034 128.481 63.8399 128.481C52.7118 128.481 42.2234 125.803 32.3747 120.448C22.6153 115.092 14.8791 107.713 9.1663 98.3103C3.42371 88.8485 0.552416 78.5535 0.552416 67.4253C0.552416 59.1536 2.26329 51.1646 5.68504 43.4582C9.10679 35.7518 13.6741 28.9232 19.3869 22.9723C25.6948 16.6941 32.9549 12.0078 41.1671 8.91338C49.4686 5.75942 58.1122 4.18244 67.098 4.18244C78.8808 4.18244 89.6072 6.91984 99.2774 12.3946V1.95086H102.402V47.8321ZM178.454 4.18244C189.76 4.18244 200.189 6.80082 209.74 12.0376C219.5 17.3339 227.295 24.6386 233.127 33.9517C238.929 43.5028 241.92 54.0507 242.098 65.5954C242.098 74.2539 240.328 82.481 236.787 90.2767C233.336 97.9235 228.456 104.618 222.148 110.361C215.781 116.193 208.595 120.641 200.591 123.706C192.587 126.889 184.3 128.481 175.731 128.481C164.544 128.481 153.936 125.803 143.909 120.448C134.149 115.092 126.413 107.713 120.701 98.3103C114.958 88.8485 112.087 78.4344 112.087 67.0683C112.087 58.499 113.857 50.2124 117.398 42.2085C120.879 34.4724 125.818 27.7628 132.215 22.0797C138.345 16.4859 145.411 12.0971 153.415 8.91338C161.538 5.75942 169.884 4.18244 178.454 4.18244ZM121.816 64.3011C121.816 74.5664 124.301 84.3109 129.27 93.5348C134.179 102.759 140.948 110.138 149.577 115.672C158.027 121.058 167.593 123.869 178.275 124.107C188.064 124.107 197.139 121.608 205.5 116.609C213.742 111.492 220.333 104.663 225.272 96.1234C230.033 87.4649 232.413 78.1369 232.413 68.1394C232.235 59.9867 230.643 52.4886 227.638 45.6451C224.751 38.5934 220.735 32.1962 215.587 26.4536C210.231 20.7407 204.132 16.352 197.288 13.2873C190.207 10.1333 182.768 8.55633 174.972 8.55633C167.593 8.55633 160.586 10.0143 153.951 12.9302C147.256 16.1139 141.588 20.2052 136.946 25.2039C132.215 30.4704 128.511 36.4362 125.833 43.1011C123.155 49.6768 121.816 56.7435 121.816 64.3011ZM339.217 10.7433H329.13V113.842C329.308 117.294 330.231 119.495 331.897 120.448C333.652 121.4 336.628 121.876 340.823 121.876V125H309.224V121.876H319.445V21.9012H319.088L293.514 92.1066L265.887 24.6237H265.53V108.352C265.53 113.738 266.631 117.338 268.833 119.153C271.183 120.968 274.471 121.876 278.696 121.876V125H250.177V121.876H260.754V24.2666C260.754 18.8811 259.668 15.2808 257.496 13.4658C255.116 11.6508 251.813 10.7433 247.588 10.7433V7.61907H268.252L295.299 72.915L319.445 7.61907H339.217V10.7433ZM370.28 108.352C370.28 113.232 370.518 116.401 370.994 117.859C371.559 119.495 372.72 120.596 374.475 121.162C375.933 121.638 379.162 121.876 384.16 121.876H388.579V125H349.616V121.876H360.595V18.777C360.387 16.2181 359.896 14.3882 359.122 13.2873C358.378 12.1566 357.218 11.4276 355.641 11.1003C353.737 10.8623 351.49 10.7433 348.902 10.7433V7.61907H404.646V0.344127H407.771V39.9769H404.646V35.246C404.646 30.8721 404.349 26.9743 403.754 23.5525C403.01 20.5176 401.418 17.9587 398.978 15.8759C394.693 12.4542 386.585 10.7433 374.654 10.7433H370.28V39.9769H385.276V21.9012H388.4V65.5954H385.276V63.4085C385.276 59.3024 384.964 55.7616 384.339 52.7862C383.803 50.2273 382.405 48.0999 380.144 46.4039C378.001 44.7971 374.713 43.9938 370.28 43.9938V108.352ZM482.127 4.18244C493.433 4.18244 503.862 6.80082 513.413 12.0376C523.173 17.3339 530.968 24.6386 536.8 33.9517C542.602 43.5028 545.593 54.0507 545.771 65.5954C545.771 74.2539 544.001 82.481 540.46 90.2767C537.009 97.9235 532.129 104.618 525.821 110.361C519.454 116.193 512.268 120.641 504.264 123.706C496.26 126.889 487.973 128.481 479.404 128.481C468.217 128.481 457.609 125.803 447.582 120.448C437.822 115.092 430.086 107.713 424.373 98.3103C418.631 88.8485 415.76 78.4344 415.76 67.0683C415.76 58.499 417.53 50.2124 421.071 42.2085C424.552 34.4724 429.491 27.7628 435.888 22.0797C442.018 16.4859 449.084 12.0971 457.088 8.91338C465.211 5.75942 473.557 4.18244 482.127 4.18244ZM425.489 64.3011C425.489 74.5664 427.974 84.3109 432.943 93.5348C437.852 102.759 444.621 110.138 453.25 115.672C461.7 121.058 471.266 123.869 481.948 124.107C491.737 124.107 500.812 121.608 509.173 116.609C517.415 111.492 524.006 104.663 528.945 96.1234C533.706 87.4649 536.086 78.1369 536.086 68.1394C535.908 59.9867 534.316 52.4886 531.311 45.6451C528.424 38.5934 524.408 32.1962 519.26 26.4536C513.904 20.7407 507.805 16.352 500.961 13.2873C493.88 10.1333 486.441 8.55633 478.645 8.55633C471.266 8.55633 464.259 10.0143 457.624 12.9302C450.929 16.1139 445.261 20.2052 440.619 25.2039C435.888 30.4704 432.184 36.4362 429.506 43.1011C426.828 49.6768 425.489 56.7435 425.489 64.3011ZM573.755 87.1525C579.557 91.3181 585.151 94.6208 590.537 97.0607C595.952 99.4708 601.337 100.676 606.693 100.676C614.072 100.676 621.005 98.7269 627.492 94.8291C633.919 90.9908 638.858 85.8135 642.309 79.2973C645.969 72.7514 647.799 65.5657 647.799 57.7403C647.62 49.5876 645.493 41.911 641.417 34.7104C637.34 27.7479 631.851 22.1392 624.948 17.8843C618.045 13.7187 610.487 11.6359 602.275 11.6359C596.532 11.6359 590.923 12.8558 585.449 15.2957C580.152 17.7951 575.645 21.2763 571.925 25.7395V89.9196L573.755 87.1525ZM571.925 18.777C583.708 10.5052 595.163 6.36938 606.292 6.36938C612.897 6.36938 619.369 7.58931 625.706 10.0292C631.806 12.35 637.281 15.7569 642.131 20.2498C646.802 24.3559 650.521 29.4736 653.289 35.603C656.086 41.6134 657.484 47.9511 657.484 54.6161C657.484 61.8166 656.145 68.3328 653.467 74.1647C650.73 80.2048 646.951 85.4565 642.131 89.9196C637.489 94.3828 632.014 97.9087 625.706 100.497C619.279 103.116 612.748 104.514 606.113 104.693V105.094L611.246 107.46C615.858 109.781 620.484 111.968 625.126 114.021C630.988 116.639 636.165 118.781 640.658 120.448C645.895 122.144 649.986 122.992 652.932 122.992C656.71 122.992 659.626 122.382 661.679 121.162L663.152 122.992C660.296 125.669 655.966 127.008 650.164 127.008C643.44 127.008 635.213 125.431 625.483 122.277C615.962 119.064 606.708 115.226 597.722 110.763C587.755 105.764 579.156 101.122 571.925 96.8375V112.012C571.925 114.928 572.178 116.937 572.684 118.037C573.101 119.495 574.068 120.477 575.585 120.983C577.43 121.578 579.989 121.876 583.262 121.876H587.279V125H552.02V121.876H562.24V18.777C562.032 16.2181 561.541 14.3882 560.767 13.2873C560.024 12.1864 558.878 11.4574 557.331 11.1003C555.367 10.8623 553.106 10.7433 550.547 10.7433V7.61907H571.925V18.777ZM734.563 47.8321H731.483V43.9938C731.066 36.3469 730.695 30.8721 730.367 27.5694C729.98 23.7608 728.82 20.5325 726.886 17.8843C725.755 16.0693 724.476 14.6708 723.048 13.689C721.619 12.7666 719.552 12.0227 716.844 11.4574C714.434 10.9813 710.476 10.7433 704.972 10.7433V112.012C704.972 115.553 705.388 117.933 706.222 119.153C707.323 120.968 710.685 121.876 716.308 121.876H720.325V125H685.022V121.876H695.287V10.7433C689.812 10.7433 685.84 10.9813 683.37 11.4574C680.663 12.0227 678.595 12.7666 677.166 13.689C675.798 14.6411 674.518 16.0395 673.328 17.8843C672.138 20.0861 671.35 21.916 670.963 23.374C670.219 26.1709 669.787 28.2388 669.668 29.5778C669.49 31.4226 669.311 33.7434 669.133 36.5403C669.073 37.3437 669.014 38.5785 668.954 40.2447C668.895 41.8812 668.835 43.1309 668.776 43.9938V47.8321H665.652V1.95086H668.776V7.61907H731.483V1.95086H734.563V47.8321ZM799.948 125L848.596 10.7433H832.529C828.75 10.7433 825.328 11.0408 822.264 11.6359C819.734 12.1715 817.607 13.5848 815.881 15.8759C813.441 19.8332 812.221 26.2304 812.221 35.0675V45.1096H809.097V1.23676H812.221V7.61907H860.468L811.864 121.876H839.268C841.946 121.876 844.624 121.757 847.302 121.519C849.325 121.34 851.155 120.611 852.792 119.332C854.517 117.993 855.975 116.103 857.165 113.664C859.129 109.825 860.111 102.387 860.111 91.3478V80.7702H863.235V131.382H860.111V125H799.948ZM939.511 4.18244C950.817 4.18244 961.246 6.80082 970.797 12.0376C980.557 17.3339 988.352 24.6386 994.184 33.9517C999.986 43.5028 1002.98 54.0507 1003.16 65.5954C1003.16 74.2539 1001.38 82.481 997.844 90.2767C994.393 97.9235 989.513 104.618 983.205 110.361C976.837 116.193 969.652 120.641 961.648 123.706C953.644 126.889 945.357 128.481 936.788 128.481C925.6 128.481 914.993 125.803 904.966 120.448C895.206 115.092 887.47 107.713 881.757 98.3103C876.015 88.8485 873.144 78.4344 873.144 67.0683C873.144 58.499 874.914 50.2124 878.455 42.2085C881.936 34.4724 886.875 27.7628 893.272 22.0797C899.402 16.4859 906.468 12.0971 914.472 8.91338C922.595 5.75942 930.941 4.18244 939.511 4.18244ZM882.873 64.3011C882.873 74.5664 885.358 84.3109 890.327 93.5348C895.236 102.759 902.005 110.138 910.634 115.672C919.084 121.058 928.65 123.869 939.332 124.107C949.121 124.107 958.196 121.608 966.557 116.609C974.799 111.492 981.39 104.663 986.329 96.1234C991.09 87.4649 993.47 78.1369 993.47 68.1394C993.292 59.9867 991.7 52.4886 988.695 45.6451C985.808 38.5934 981.792 32.1962 976.644 26.4536C971.288 20.7407 965.189 16.352 958.345 13.2873C951.264 10.1333 943.825 8.55633 936.029 8.55633C928.65 8.55633 921.643 10.0143 915.008 12.9302C908.313 16.1139 902.645 20.2052 898.003 25.2039C893.272 30.4704 889.568 36.4362 886.89 43.1011C884.212 49.6768 882.873 56.7435 882.873 64.3011ZM1071.17 131.204L1025.29 33.059H1024.94V108.352C1024.94 113.708 1026.04 117.308 1028.24 119.153C1030.59 120.968 1033.88 121.876 1038.1 121.876V125H1010.65V121.876H1019.8V24.2666C1019.8 18.8811 1018.72 15.2808 1016.54 13.4658C1014.16 11.6508 1010.86 10.7433 1006.64 10.7433V7.61907H1023.28L1068.63 104.871H1068.99V24.2666C1068.99 21.0829 1068.26 18.0331 1066.8 15.1172C1065.13 12.2012 1062.02 10.7433 1057.47 10.7433V7.61907H1082.69V10.7433H1074.12V131.204H1071.17ZM1089.56 125V121.876H1100.5V18.777C1100.32 16.2181 1099.84 14.3882 1099.07 13.2873C1098.26 12.1566 1097.1 11.4276 1095.59 11.1003C1093.62 10.8623 1091.36 10.7433 1088.8 10.7433V7.61907H1144.77V0.344127H1147.85V39.7984H1144.77V38.147V33.4161C1144.77 28.7149 1144.34 24.8766 1143.48 21.9012C1142.55 18.8662 1140.55 16.4264 1137.45 14.5816C1133.23 12.0227 1125.67 10.7433 1114.78 10.7433H1110.18V39.6199H1125.58V21.9012H1128.66V65.2384H1125.58V60.6413C1125.58 55.7021 1124.72 51.6258 1122.99 48.4123C1121.29 45.2286 1117.83 43.6367 1112.59 43.6367H1110.18V121.876H1111.65C1117.84 121.876 1122.72 121.638 1126.29 121.162C1129.98 120.805 1133.45 119.763 1136.69 118.037C1140 116.014 1142.2 113.396 1143.3 110.182C1144.28 106.79 1144.77 102.833 1144.77 98.3103V92.8207V89.1609H1147.85V132.32H1144.77V125H1089.56Z" fill="#1C1C1C"/>
</svg>
