<svg width="18" height="18" viewBox="0 0 18 18" fill="none" xmlns="http://www.w3.org/2000/svg">
<path d="M12.906 0H5.103C2.052 0 0 2.142 0 5.328V12.681C0 15.858 2.052 18 5.103 18H12.906C15.957 18 18 15.858 18 12.681V5.328C18 2.142 15.957 0 12.906 0Z" fill="#C49476"/>
<path d="M7.93195 11.923C7.73035 11.923 7.52875 11.8465 7.37485 11.6926L5.23915 9.55692C4.93135 9.24912 4.93135 8.75052 5.23915 8.44362C5.54695 8.13582 6.04465 8.13492 6.35245 8.44272L7.93195 10.0222L11.6472 6.30702C11.955 5.99922 12.4527 5.99922 12.7605 6.30702C13.0683 6.61482 13.0683 7.11342 12.7605 7.42122L8.48905 11.6926C8.33515 11.8465 8.13355 11.923 7.93195 11.923Z" fill="white"/>
</svg>
